<svg id="Flat" height="512" viewBox="0 0 512 512" width="512" xmlns="http://www.w3.org/2000/svg"><path d="m56 296h240a32 32 0 0 1 32 32v160a0 0 0 0 1 0 0h-304a0 0 0 0 1 0 0v-160a32 32 0 0 1 32-32z" fill="#eba72e"/><path d="m264 296h32v112h-32z" fill="#a36f58"/><path d="m56 296h32v112h-32z" fill="#a36f58"/><path d="m168 368h16v48h-16z" fill="#e09f2c"/><path d="m392 200h32v288h-32z" fill="#d0d2d4"/><path d="m456 24v128h-32v-112a16 16 0 0 0 -16-16 16 16 0 0 0 -16 16v112h-32v-128h-8.969a16 16 0 0 0 -15.969 15l-7.062 113v16a32 32 0 0 0 32 32h96a32 32 0 0 0 32-32v-16l-7.062-113a16 16 0 0 0 -15.969-15z" fill="#c3c6c7"/><path d="m392 376h32v112h-32z" fill="#b6b9ba"/><path d="m56 408h240v80h-240z" fill="#a36f58"/><circle cx="72" cy="208" fill="#f0c6a4" r="32"/><circle cx="280" cy="208" fill="#f0c6a4" r="32"/><rect fill="#f7cca9" height="224" rx="104" width="208" x="72" y="80"/><g fill="#452d23"><circle cx="216" cy="200" r="8"/><circle cx="136" cy="200" r="8"/><path d="m168 232a8 8 0 0 1 -8-8v-24a8 8 0 0 1 16 0v24a8 8 0 0 1 -8 8z"/></g><path d="m128 456h96v32h-96z" fill="#d49073"/><path d="m280 136h-208l13.611-95.279c1.389-9.683 8.01-16.721 15.742-16.721h149.294c7.732 0 14.358 7.038 15.742 16.721z" fill="#d49073"/><path d="m280 136h-208l4.57-32h198.86z" fill="#d13330"/><path d="m72.985 136h206.03a32 32 0 0 1 31.045 24.239l1.94 7.761h-272l1.94-7.761a32 32 0 0 1 31.045-24.239z" fill="#d49073"/><path d="m252.18 279.17a32 32 0 0 0 -45.98-41.762 32 32 0 0 0 -60.394 0 32 32 0 0 0 -45.986 41.762 32 32 0 0 0 28.68 55.681 48 48 0 0 0 95.01 0 32 32 0 0 0 28.67-55.681z" fill="#95573a"/><path d="m192 272h-32a8 8 0 0 1 0-16h32a8 8 0 0 1 0 16z" fill="#452d23"/><style xmlns="" class="darkreader darkreader--fallback">html, body, body :not(iframe) { background-color: #181a1b !important; border-color: #776e62 !important; color: #e8e6e3 !important; }</style></svg>